<svg id="Layer_1" data-name="Layer 1" xmlns="http://www.w3.org/2000/svg" viewBox="0 0 2171 595.19"><defs><style>.cls-1,.cls-2,.cls-3{fill:#fff;fill-rule:evenodd;}.cls-1{opacity:0.5;}.cls-1,.cls-2{isolation:isolate;}.cls-2{opacity:0.4;}</style></defs><path id="shape_1" data-name="shape 1" class="cls-1" d="M1573.68,444.07c-88.24,24.06-177.56,47.25-266.83,55.84q-16.74,1.6-33.49,2.49-8.37.44-16.75.67t-16.75.26a599.74,599.74,0,0,1-67-3.48c-44.68-4.9-69.62-7.7-114.25-25.06,0,0,0,.09,0,.13C702.81,337,340.92,544-14,516.46c-.59-92.05-.38-196.2-1-285.38,183.56,91.58,364.85,51.72,533.7,4.15C602.89,210.91,681,181,759.54,165.05s161.41-14,260.59,28.2c193.34,80.73,342.15,40.05,488-22,73.56-30.65,141.53-68.79,213.45-96.11,36.27-13.41,73.53-24.08,114.87-28.34q7.76-.8,15.7-1.29,4-.24,8-.41c2.68-.11,5.39-.18,8.11-.24,10.89-.21,22.09,0,33.63.79a466.12,466.12,0,0,1,73.89,11.09c97.69,161,124.48,269.08,132.19,363.36C1919.93,341.13,1750,396.1,1573.68,444.07Z" transform="translate(39 -44.81)"/><path id="shape_2" data-name="shape 2" class="cls-2" d="M957.7,439.82C850.87,485.16,758,542.46,648.48,486.69v-.07C538.57,414.38,431.22,463.21,323,511.2c-54.07,24-108.19,48-162.43,57.07A265.76,265.76,0,0,1,119.88,572q-10.18.11-20.37-.67t-20.4-2.6c-28.18-4.91-55.73-16.08-81.77-33.17Q-3.83,402.65-5,269.73C103.14,340.27,213.14,302,317.55,254.34,423,207.62,522.87,151.42,634,208.78c107.37,61.32,205.25,10.6,297.53-46.1,48.54-29.45,95.43-60.51,146.68-72.48a187.64,187.64,0,0,1,39.45-5,180.6,180.6,0,0,1,20.55.83,187.54,187.54,0,0,1,21.16,3.36c28.62,6.21,59.09,19.79,91,42.16,21,108.43,29.24,204.33,32.77,295.64C1170.5,352.32,1064.91,394.86,957.7,439.82Z" transform="translate(39 -44.81)"/><path id="shape_3" data-name="shape 3" class="cls-3" d="M1035.1,484.79C672.63,352.06,357.84,715.05-4.64,582.33L-20,310.81c362.47,132.72,696.44-223.6,1058.92-90.88S1717.16-10.13,2079.63,122.6q7.68,135.75,15.37,271.52C1732.53,261.4,1397.57,617.51,1035.1,484.79Z" transform="translate(39 -44.81)"/><path id="shape_4" data-name="shape 4" class="cls-3" d="M-36.7,382.51l2154.5-42.63L2132,640H-39Z" transform="translate(39 -44.81)"/></svg>